<?xml version="1.0" standalone="no"?>
<!DOCTYPE svg PUBLIC "-//W3C//DTD SVG 1.1//EN" "http://www.w3.org/Graphics/SVG/1.1/DTD/svg11.dtd" >
<svg xmlns="http://www.w3.org/2000/svg">
<metadata>
Created by FontForge 20120731 at Mon Jan 16 17:50:02 2017
 By admin
</metadata>
<defs>
<font id="iconfont" horiz-adv-x="1024" >
  <font-face 
    font-family="iconfont"
    font-weight="500"
    font-stretch="normal"
    units-per-em="1024"
    panose-1="2 0 6 3 0 0 0 0 0 0"
    ascent="896"
    descent="-128"
    x-height="792"
    bbox="-4.33333 -212 1101 903.226"
    underline-thickness="0"
    underline-position="0"
    unicode-range="U+0078-E8EC"
  />
<missing-glyph 
 />
    <glyph glyph-name=".notdef" 
 />
    <glyph glyph-name=".notdef" 
 />
    <glyph glyph-name=".null" horiz-adv-x="0" 
 />
    <glyph glyph-name="nonmarkingreturn" horiz-adv-x="341" 
 />
    <glyph glyph-name="x" unicode="x" horiz-adv-x="1001" 
d="M281 543q-27 -1 -53 -1h-83q-18 0 -36.5 -6t-32.5 -18.5t-23 -32t-9 -45.5v-76h912v41q0 16 -0.5 30t-0.5 18q0 13 -5 29t-17 29.5t-31.5 22.5t-49.5 9h-133v-97h-438v97zM955 310v-52q0 -23 0.5 -52t0.5 -58t-10.5 -47.5t-26 -30t-33 -16t-31.5 -4.5q-14 -1 -29.5 -0.5
t-29.5 0.5h-32l-45 128h-439l-44 -128h-29h-34q-20 0 -45 1q-25 0 -41 9.5t-25.5 23t-13.5 29.5t-4 30v167h911zM163 247q-12 0 -21 -8.5t-9 -21.5t9 -21.5t21 -8.5q13 0 22 8.5t9 21.5t-9 21.5t-22 8.5zM316 123q-8 -26 -14 -48q-5 -19 -10.5 -37t-7.5 -25t-3 -15t1 -14.5
t9.5 -10.5t21.5 -4h37h67h81h80h64h36q23 0 34 12t2 38q-5 13 -9.5 30.5t-9.5 34.5q-5 19 -11 39h-368zM336 498v228q0 11 2.5 23t10 21.5t20.5 15.5t34 6h188q31 0 51.5 -14.5t20.5 -52.5v-227h-327z" />
    <glyph glyph-name="shuaxin" unicode="&#xe600;" 
d="M694 133q-86 -61 -190 -59q-13 0 -27 1q-2 0 -6 0.5t-5 0.5q-13 2 -20 3q-1 1 -12 3q-13 3 -20 5l-9 3q-14 5 -22 9l-5 2q-14 6 -25 12h-1q-41 23 -73 56l-1 1v1q-11 10 -20 21q0 1 -1.5 2.5l-2.5 2.5q-71 90 -71 205h75q4 0 5.5 2.5t-0.5 5.5l-126 192q-2 3 -5 3t-4 -3
l-127 -192q-2 -3 -0.5 -5.5t5.5 -2.5h75q0 -135 75 -245q1 -1 1.5 -2l0.5 -1q3 -4 16 -21l2 -3t4 -4q10 -13 24 -28q2 -2 3 -2q42 -43 95 -73q2 -1 3 -2q14 -7 31 -15q1 0 4 -1.5t4 -1.5q11 -5 28 -11q10 -3 13 -4q9 -3 25 -6q14 -4 17 -4l2.5 -1t3.5 -1q5 -1 24 -3
q2 0 4.5 -0.5t4.5 -0.5q23 -3 42 -3q134 0 244 79q18 12 21.5 33t-8.5 39t-33 21.5t-38 -8.5v0zM934 402q0 133 -75 244l-0.5 1.5t-1.5 1.5q-5 8 -18 25q-1 0 -1.5 1t-1.5 2q-65 80 -159 121q-1 0 -2.5 1t-2.5 1q-13 5 -30 11l-4.5 1.5t-6.5 2.5q-10 3 -27 7q-13 3 -15 3
q-1 1 -3.5 1.5t-3.5 0.5q-4 1 -11.5 1.5t-8.5 1.5q-2 0 -7 0.5t-7 0.5q-15 2 -34 2q-1 0 -3 0.5t-3 0.5t-1 -0.5v-0.5q-134 0 -244 -78q-17 -12 -21 -33t8 -38.5t33 -21.5t39 8q84 61 188 60q14 0 28 -2q2 0 5 -0.5t4 -0.5q13 -2 23 -3q0 -1 10 -3q13 -3 22 -5
q1 -1 3.5 -1.5t3.5 -1.5q13 -4 24 -9l1 -0.5l1 -0.5q73 -31 123 -93v0v0q74 -91 74 -208h-75q-4 0 -5.5 -3t0.5 -6l127 -192q1 -2 4 -2t5 2l126 192q2 3 0.5 6t-5.5 3h-75z" />
    <glyph glyph-name="gouwuche2" unicode="&#xe629;" 
d="M943 727q29 0 45 -8.5t23 -21.5q7 -12 6 -26q0 -15 -3 -25l-13 -42l-23 -69q-13 -42 -24 -76q-12 -39 -18 -58q-13 -45 -34 -63t-51 -18h-542l15 -102h521q50 0 50 -46q0 -23 -10 -39q-10 -17 -39 -17h-541q-21 0 -35 10t-23 27q-9 16 -15 36q-6 18 -9 36q-1 9 -6 33
l-11 65l-15 87l-17 97q-17 105 -44 255h-77q-16 0 -26 8q-11 9 -17.5 21t-9 25.5t-2.5 24.5q0 23 14 37.5t37 14.5h105q20 0 33 -6q12 -7 19 -17q8 -11 11 -22l5 -19q2 -10 4 -26l4 -33q2 -12 6 -43h707zM769.5 83q19.5 0 37.5 -7.5t31 -22.5q14 -14 21 -33q8 -19 8 -40.5
t-8 -41.5q-7 -19 -21 -33q-12 -14 -30.5 -22.5t-38 -8.5t-37 8.5t-30.5 22.5t-21 33q-7 20 -7 41.5t7 40.5q8 19 21 33.5t31 21.5q17 8 36.5 8zM340 86q19 0 37 -8t31 -22t20.5 -33.5t7.5 -41t-7.5 -41t-20.5 -33.5t-31 -22q-17 -9 -37 -9q-21 0 -38 8.5t-30 22.5
q-14 15 -21 34t-7 40.5t7 40.5t21 34q13 14 30 22t38 8z" />
    <glyph glyph-name="keting" unicode="&#xe614;" 
d="M944 499v57q0 53 -37 90.5t-90 37.5h-613q-53 0 -90.5 -37.5t-37.5 -90.5v-57q-33 -8 -54.5 -35.5t-21.5 -62.5v-485h1021v485q0 35 -21.5 62.5t-55.5 35.5zM204 633h613q32 0 54 -22.5t22 -54.5v-57q-33 -8 -54.5 -35.5t-21.5 -62.5v-77h-613v77q0 35 -21.5 62.5
t-54.5 35.5v57q0 32 22 54.5t54 22.5zM817 273v-77h-281v77h281zM204 273h281v-77h-281v77zM971 -35h-921v436q0 22 15.5 37t37.5 15q21 0 35.5 -15t14.5 -37v-256h48h3h613h6h45v256q0 22 15 37t36.5 15t36.5 -15t15 -37v-436z" />
    <glyph glyph-name="fuzhi" unicode="&#xe647;" 
d="M996 462q0 8 -6 14l-141 162q-7 7 -17 5h-462q-25 0 -42.5 -17.5t-17.5 -42.5v-727q0 -25 17.5 -43t42.5 -18h566q25 0 42.5 18t17.5 43v606v0zM933 -117q0 -7 -5.5 -12.5t-13.5 -5.5h-522q-8 0 -13.5 5.5t-5.5 12.5v672q0 8 5.5 13.5t13.5 5.5h391v-112
q0 -23 16.5 -39.5t39.5 -16.5h94v-523zM92 88v630q0 8 6 14t14 6h492q8 0 14 -6t6 -14v-34h69v60q0 25 -17.5 43t-42.5 18h-545q-25 0 -42.5 -18t-17.5 -43v-686q0 -25 17.5 -43t42.5 -18h181v71h-157q-8 0 -14 6t-6 14v0zM684 408h-63v-157h-157v-63h157v-158h63v158h158
v63h-158v157v0z" />
    <glyph glyph-name="shenghuo" unicode="&#xe646;" 
d="M987 856l-2 22l-22 4q-31 5 -77 5q-117 0 -207 -42q-86 -40 -150 -184q-9 -21 -18 -44q-13 43 -33 80q-38 68 -99 109q-120 79 -258 79q-46 0 -77 -7l-20 -5l-1 -21q-6 -56 7 -126q10 -62 34 -112q31 -65 80 -107q72 -61 150 -89q62 -22 125 -22v0q32 0 65 6v-76h-282
v-346q0 -40 28.5 -68.5t68.5 -28.5h443q40 0 68.5 28.5t28.5 68.5v346h-297v161q59 -9 110 -9q169 0 257 99q27 32 45.5 72t25 72t8.5 66.5t1 47.5t-2 21zM780 -20q0 -16 -11 -27t-27 -11h-443q-16 0 -27.5 11t-11.5 27v288h520v-288zM419 455q-124 0 -237 96q-40 34 -65 87
q-20 43 -30 97q-8 44 -7 90q20 2 41 2q120 0 225 -70q49 -32 80 -88q26 -46 38 -105q11 -51 11 -104q-28 -5 -56 -5zM865 616q-71 -80 -213 -80q-48 0 -104 9q15 50 35 94q54 123 120 153q79 37 183 37q23 0 45 -2q3 -134 -66 -211z" />
    <glyph glyph-name="taideng" unicode="&#xe6af;" 
d="M883 329l-125 510q-5 18 -20 29.5t-33 11.5h-396q-18 0 -33 -11.5t-20 -29.5l-125 -510q-6 -22 7.5 -39t35.5 -17h305v-327h-253q-12 0 -20.5 -8.5t-8.5 -20.5t8.5 -20.5t20.5 -8.5h539q12 0 20.5 8.5t8.5 20.5t-8.5 20.5t-20.5 8.5h-228v327h303q22 0 35 17t8 39z
M191 332l121 490h390l120 -490h-631z" />
    <glyph glyph-name="msnui-org" unicode="&#xe680;" 
d="M551 337q-114 0 -194.5 80.5t-80.5 194.5t80.5 194.5t194.5 80.5t194.5 -80.5t80.5 -194.5t-80.5 -194.5t-194.5 -80.5zM551 785q-71 0 -122 -50.5t-51 -122t51 -122.5t122 -51t122 51t51 122.5t-51 122t-122 50.5zM231 -127q-94 0 -160.5 66.5t-66.5 160.5t66.5 160.5
t160.5 66.5t160.5 -66.5t66.5 -160.5t-66.5 -160.5t-160.5 -66.5zM231.5 225q-51.5 0 -88.5 -36.5t-37 -88t37 -88t88.5 -36.5t88 36.5t36.5 88t-36.5 88t-88 36.5zM839 -47q-74 0 -126.5 52.5t-52.5 126.5t52.5 126.5t126.5 52.5t126.5 -52.5t52.5 -126.5t-52.5 -126.5
t-126.5 -52.5zM839 209q-32 0 -54.5 -22.5t-22.5 -54t22.5 -54t54.5 -22.5t54.5 22.5t22.5 54t-22.5 54t-54.5 22.5zM379 447l88 -53l-96 -160l-88 53zM757 475l96 -192l-92 -46l-96 192z" />
    <glyph glyph-name="feiyongshuomingicon" unicode="&#xe6fd;" 
d="M676 296q17 0 29 12t12 29t-12 29.5t-29 12.5h-55l66 137q6 11 0 25.5t-20.5 23.5t-29.5 7.5t-22 -13.5l-85 -178q0 -1 -1 -2h-21l-2 4l-84 170q-6 11 -21 12.5t-29.5 -7t-20.5 -22.5t0 -25l66 -132h-66q-18 0 -30 -12.5t-12 -29.5t12 -29t30 -12h121v-56h-121
q-18 0 -30 -12.5t-12 -29.5t12 -29t30 -12h121v-121q0 -17 12 -29t29 -12v0q17 0 29.5 12t12.5 29v121h121q17 0 29 12t12 29t-12 29.5t-29 12.5h-121v56h121zM513 811q-104 0 -198 -40.5t-162.5 -108.5t-109 -162.5t-40.5 -198.5t40.5 -198t109 -162.5t162.5 -109
t198 -40.5t198.5 40.5t162.5 109t108.5 162.5t40.5 198t-40.5 198.5t-108.5 162.5t-162.5 108.5t-198.5 40.5zM513.5 -139q-89.5 0 -171 35t-140.5 94t-94 140.5t-35 171t35 170.5t94 140t140.5 94t171 35t170.5 -35t140 -94t94 -140t35 -170.5t-35 -171t-94 -140.5
t-140 -94t-170.5 -35z" />
    <glyph glyph-name="chaxun" unicode="&#xe7b9;" 
d="M997 -29l-233 232q89 115 89 261q0 115 -56.5 212.5t-154.5 154.5t-213 57t-213 -57t-154.5 -154.5t-56.5 -213t56.5 -213t154.5 -154.5t213 -57q145 0 260 89l233 -232q15 -16 37 -16t37.5 15.5t15.5 37.5t-15 38v0zM111 463.5q0 86.5 42.5 160t116 116t159.5 42.5
t159.5 -42.5t116 -116t42.5 -160t-42.5 -159.5t-116 -116t-159.5 -43t-159.5 43t-116 116t-42.5 159.5z" />
    <glyph glyph-name="fanhui" unicode="&#xe6c2;" 
d="M778 707l-320 -324l320 -323q15 -15 22.5 -34t7.5 -39t-7.5 -38.5t-22.5 -32.5q-30 -31 -71 -31t-71 31l-386 389q-15 15 -23.5 35.5t-9.5 42t5 41t21 31.5l393 396q30 30 71 30t71 -30q15 -14 22.5 -33.5t7.5 -39t-7.5 -38t-22.5 -33.5v0zM778 707z" />
    <glyph glyph-name="password" unicode="&#xe644;" 
d="M854 546h-91q0 110 -74 184.5t-181 74.5t-181 -74.5t-74 -184.5h-91q0 88 46 168.5t126.5 131t173 50.5t173.5 -50.5t127 -131t46 -168.5v0zM970 396q0 38 -27 65t-65 27h-730q-38 0 -65 -27t-27 -65v-433q0 -38 27 -64.5t65 -26.5h730q38 0 65 26.5t27 64.5v433v0z
M585 58q0 -29 -20 -49t-48 -20h-10q-28 0 -48 20t-20 49v185q0 29 20 49t48 20h10q28 0 48 -20t20 -49v-185zM585 58z" />
    <glyph glyph-name="weihuguanli" unicode="&#xe6f6;" 
d="M968 637l-53 -53q-42 -42 -101 -42t-101 42t-42 101.5t42 100.5q24 24 52 53q23 22 9.5 41t-51.5 14q-84 -14 -145 -74q-48 -48 -66 -111.5t-5 -127.5l-438 -439q-42 -42 -42 -101t42 -101t101 -42t101 42l439 439q64 -14 127.5 4.5t111.5 65.5q60 61 73 145
q6 38 -13.5 51.5t-40.5 -8.5v0zM203.5 7q-13.5 -14 -33.5 -14t-34 14t-14 34t14 34t33.5 14t33.5 -14t14 -34t-13.5 -34zM156 628l165 -165l67 67l-165 165l-37 71l-118 84l-67 -67l84 -118zM709 277q-7 7 -17 7t-17 -7l-101 -101q-7 -7 -7 -16.5t7 -16.5l238 -239
q28 -28 67.5 -28t67.5 28t28 67.5t-28 67.5z" />
    <glyph glyph-name="jiancaizhuangxiu" unicode="&#xe643;" 
d="M1004 442l-396 396q-22 21 -56 20t-58 -25l-87 -87q0 1 -0.5 1.5t-0.5 1.5l-36 35q-7 8 -17.5 8t-18.5 -8l-128 -128q-8 -8 -8 -18.5t8 -17.5l247 -247l-11 -11l-13 12q-24 24 -60 24t-60 -24q-2 -2 -4 -5q-15 -24 -21 -43l-261 -221q-25 -25 -25 -60t25 -60l82 -82
q25 -25 60.5 -25t62.5 27l212 261q21 5 46 20q4 3 6 5q25 25 25 60t-25 60l-14 15l29 28q7 8 7 18.5t-7 18.5l-247 247l92 92l18 -18h1t1 -1l-13 -12q-24 -25 -25.5 -58.5t21.5 -56.5l396 -395q22 -22 53 -22q35 0 61 26l135 134q24 24 26 56q2 35 -22 59zM446 242
q-7 -4 -19 -10q-19 3 -31 -12l-219 -269q-12 -12 -23 0l-83 82q-5 5 -5 12t3 10l269 227q13 11 12 25q1 6 10 21q11 8 21 -2l63 -63q5 -5 5 -12q0 -5 -3 -9zM952 376l-135 -135q-6 -6 -13 -6l-401 398q-6 6 5 17l134 135q5 5 12 5q3 0 6 -1l396 -396q7 -6 -4 -17z" />
    <glyph glyph-name="fanhui1" unicode="&#xe666;" 
d="M235 300l506 512l48 -98l-409 -414l409 -414l-48 -98z" />
    <glyph glyph-name="del" unicode="&#xe660;" 
d="M105 723q0 21 15 36t36 15h254v51q0 21 15 36t36 15h102q21 0 36 -15t15 -36v-51h254q21 0 36 -15t15 -36v-51h-814v51zM868 571v-628q0 -21 -15 -36t-36 -15h-610q-21 0 -36 15t-15 36v678h712v-50zM359 469q0 21 -14.5 36t-36 15t-36 -15t-14.5 -36v-424
q0 -21 14.5 -36t36 -15t36 15t14.5 36v424zM563 469q0 21 -15 36t-36 15t-36 -15t-15 -36v-424q0 -21 15 -36t36 -15t36 15t15 36v424zM766 469q0 21 -14.5 36t-36 15t-36 -15t-14.5 -36v-424q0 -21 14.5 -36t36 -15t36 15t14.5 36v424z" />
    <glyph glyph-name="jiancai1" unicode="&#xe641;" 
d="M179 230q-74 0 -126.5 -52.5t-52.5 -126.5t52.5 -126.5t126.5 -52.5t126.5 52.5t52.5 126.5t-52.5 126.5t-126.5 52.5zM179 -77q-53 0 -90.5 37.5t-37.5 90.5t37.5 90.5t90.5 37.5t90.5 -37.5t37.5 -90.5t-37.5 -90.5t-90.5 -37.5zM971 484q-42 41 -99 50t-107 -16l72 71
q52 53 52 127t-52.5 126.5t-126.5 52.5t-127 -52l-353 -354q-53 -52 -53 -126t53 -127q41 -41 98 -50t107 16l-24 -24l-1 -1l-3 -3l-1 -1l-0.5 -0.5l-1.5 -1.5l-2 -2v-0.5v-0.5l-3 -3v0v0q-1 -2 -3 -3v-1q-1 -1 -2 -3v0q-8 -10 -14 -22v0q-1 -1 -2 -3v-1q-1 -1 -2 -3v-0.5
v-0.5q-1 -1 -2 -3l-0.5 -1l-1.5 -3l-0.5 -1.5l-0.5 -1.5q-1 -2 -1 -3t-1 -1q0 -2 -1 -3v-1q-1 -2 -1 -4v0l-2 -4v0q-3 -12 -5 -25v0q0 -3 -1 -4v-1v-4v0v0v-4l-0.5 -0.5l-0.5 -0.5v-3v-2.5v-2.5v-4v0v0v-4v-2.5v-2.5v-3l0.5 -0.5l0.5 -0.5v-3v-1v0v-4v-1q1 -1 1 -4v0
q2 -12 5 -25v0l2 -4v0v0q0 -2 1 -4v-1q1 -1 1 -3q1 0 1 -1q0 -2 0.5 -2.5t1 -2l0.5 -1.5q1 -1 2 -3v-1q1 -2 2 -3v-0.5v-0.5q1 -2 2 -3v-1q1 -1 2 -3v0q7 -14 16 -25v-1q2 -1 3 -3v0v0l3 -3v-0.5v-0.5q2 -1 2 -2q1 0 2 -2l1 -1l3 -3v0l0.5 -0.5l0.5 -0.5v0l3 -3l2 -1
l0.5 -0.5t0.5 -1.5q1 0 2 -2h0.5h0.5l3 -3v0v0q2 -1 3 -3h1q12 -9 25 -16v0q2 -1 3 -2l1 -1q2 0 3 -1l1 -1q1 0 3 -1q1 0 1 -1q2 0 3 -1l1.5 -0.5t2.5 -0.5q1 -1 2 -1.5l1 -0.5q2 0 3 -1h1q2 -1 4 -1v0v0l4 -2v0q13 -3 25 -5v0q3 0 5 -1v0h4v0h1q2 0 3 -1h0.5h0.5h3h2h3h4v0
v0h5h2h2h3h0.5h0.5q2 1 4 1v0v0h4h1q2 1 4 1v0q13 2 25 5v0l4 2h1q1 0 3 1h1q2 1 3 1q0 1 1 1q2 0 3 1l1.5 0.5t2.5 0.5q1 1 2 1l1 1q2 1 3 1l0.5 0.5l0.5 0.5q2 1 3 1l1 1q2 1 3 2v0q12 6 22 14v0l4 2v0l3 3v0l3 3h0.5h0.5l2 2l1 1l1 1q1 1 2 1q1 2 2 3h1v0l307 307v0
q52 52 52 126t-52 127zM934 448q40 -39 38 -95q-11 9 -25 18q-43 26 -104 38.5t-122 5.5l32 33h1q37 37 90 37t90 -37zM625 -42l-1 -1l-1 -1q-1 0 -2 -1v-0.5v-0.5q-1 0 -2 -1l-1 -1q-1 -1 -2 -1v-1q-1 -1 -2 -1v0q-8 -6 -16 -10v0q-1 -1 -3 -2v0q-1 -1 -2 -1h-1
q-1 -1 -2 -1q0 -1 -1 -1t-2 -1h-1t-1 -1h-2l-1 -1q-1 0 -2 -1h-1q-1 0 -2 -1h-1t-2 -1h-1q-8 -2 -18 -4v0h-2h-1h-3v0h-3v-1h-1h-2h-1h-0.5h-1.5h-2.5h-3.5h-0.5h-1.5h-1.5h-1.5h-0.5t-0.5 1h-3v0h-3v0h-3v0l-18 4v0q-2 1 -3 1v0q-2 1 -3 1h-1q-1 1 -2 1l-1 1q-1 0 -1.5 0.5
t-1.5 0.5h-1q-1 1 -2 1t-1 1q-1 0 -2 1v0h-1t-2 1v0q-2 1 -3 2v0q-9 5 -18 11v1q-1 0 -2 1l-1 1l-1 1q-1 0 -1 0.5v0.5q-1 1 -2 1l-0.5 0.5l-0.5 0.5l-1 1l-2 2q0 1 -1 1l-2 2l-1 1v0.5t-1 0.5q0 1 -1 2h-1q0 1 -1 2l-1 1q-1 1 -1 2h-1q-7 10 -13 21v0q0 1 -1 2v1q-1 1 -1 2
l-1 1q0 1 -1 2v1t-0.5 1.5t-1 1.5l-0.5 1v2l-1 1v2l-1 1v2l-1 1v3v0q-2 4 -2 9v0q-1 1 -1 3v0v3v0q-1 1 -1 3v0v3v0v0v3l-0.5 1t-0.5 2v2v0.5v0.5v3v3v0.5v0.5v2q0 1 0.5 2l0.5 1v3v0v0v3v0q0 2 1 3v0v3v0q1 7 3 12v0v3l1 1v2v1q1 1 1 2l0.5 0.5l0.5 0.5v2l0.5 1t0.5 2
q1 0 1 1t1 1q0 1 0.5 2l0.5 1q0 1 1 2v1q1 1 1 2v0q1 2 2 3v0q4 8 10 16v0q1 1 1 2h1q0 1 1 2l1 1v0q1 1 1 2h0.5h0.5l1.5 1.5l1.5 1.5v1q2 1 3 2.5t2 2.5h0.5t0.5 1q1 0 1.5 0.5t1 1.5t1.5 1l1 1l0.5 0.5l0.5 0.5q1 1 2 1v1q1 1 2 1l1 1q1 0 2 1v0q6 5 13 8v1q1 0 3 1v0
q1 1 2 1h1q1 1 2 1q0 1 1 1t2 1l1 0.5t2 0.5h1l1 1q1 0 2 1h1q1 0 3 1v0q1 0 3 1v0l18 4v0h3v0h3v0v0q2 0 3 1h0.5h0.5h1.5h2.5h0.5h0.5h3.5h2.5h1.5h0.5h1h2h1v0q2 -1 3 -1v0h3h1h2v0q10 -2 18 -4h1q1 -1 2 -1h1q1 -1 2 -1h1q1 -1 2 -1t1 -1h2q0 -1 1 -1t1.5 -0.5t1.5 -0.5
t1 -1q1 0 2 -1h1q1 0 2 -1h1q1 -1 2 -1v-1q1 0 3 -1v0q5 -3 10 -7v0q1 -1 3 -1v-1q1 0 2 -1v-1q1 0 2 -1l1 -1t2 -1l1 -1l1 -1q0 -1 2 -2v0v0l2.5 -2.5l2.5 -2.5v0v-1q1 -1 2 -1l1 -1l1 -1q0 -1 1 -2l0.5 -0.5l0.5 -0.5q1 -1 1 -2h1q1 -1 1 -2l1 -1q1 -1 1 -2v0l2 -2v0
q3 -4 5 -8v0q1 -2 1 -3h1q0 -1 1 -3v0v0q1 -1 1 -2t1 -1v-2l1 -1q0 -1 0.5 -1.5t1 -1.5l0.5 -1q0 -1 1 -2v-1q0 -1 1 -2v-0.5v-0.5q0 -1 1 -2v-1q4 -11 5 -24v0v-3v0q1 -1 1 -3v0v0v-3v-1v-2v-2v-2v-2v-2v-1v-2v-1v0q0 -1 -1 -3v0v-3v0v-3v0l-4 -18v0q-1 -2 -1 -3v-1
q-1 -1 -1 -2v-1q-1 -1 -1 -2v-1q-1 -1 -1 -1.5t-0.5 -1.5l-0.5 -1q-1 -1 -1 -2v-1q-1 -1 -1 -2q-1 0 -1 -1t-1 -2v0q-1 -2 -1 -3v0q-5 -8 -10 -15v-1l-2 -2v0l-2 -2v-0.5t-1 -0.5q0 -1 -1 -2h-0.5h-0.5q-1 -1 -1 -2l-1 -1l-1 -1l-2 -2l-1 -1l-2 -2v0zM673 584
q-45 27 -107.5 39t-124.5 5l45 45q66 30 147 25t135 -38q28 -17 34 -33q-1 -1 -2 -1v0l-81 -82q-16 22 -46 40zM716 50v0.5v0.5v0.5v0.5v3v3v0.5v1.5v3v0.5v0.5q0 2 -1 4v0v0v4v1q-2 15 -6 29v0q-1 2 -1 4h-1q0 2 -1 4v1q-1 1 -1 3l-0.5 0.5l-0.5 0.5q0 2 -1 3l-0.5 1.5
t-1 2.5t-0.5 2l-1 1q-1 2 -1 3l-1 1q0 2 -1 3l-1 1q0 1 -1 3h-1q-6 12 -13 22v0l-3 3v1l-3 3v0v0q-1 2 -2 3q-1 0 -1 0.5v0.5l-2 2l-2 2l-0.5 0.5l-0.5 0.5q-3 4 -6 7q-1 0 -2 1l-2 2l-2 2h-0.5t-0.5 1q-1 0 -2 2h-1v0l-3 3v0l-4 2v1q-10 7 -21 13q-1 0 -1 1q-1 0 -3 1
l-0.5 0.5l-0.5 0.5q-1 0 -3 1l-1 1q-1 0 -3 1l-1 1q-1 0 -2 0.5t-2.5 1l-1.5 0.5q-1 1 -3 1l-1 1q-2 0 -3 1h-1q-2 1 -4 1v0l-4 2v0q-14 4 -29 6h-1h-4v0v0q-2 0 -4 1h-0.5h-0.5h-3h-1h-1h-2h-1q66 25 142 18.5t127 -37.5q29 -17 35 -34l-129 -128v0.5v0.5v0zM620 806
q37 38 90 38t90 -38q27 -26 35 -62t-4 -69q-14 15 -37 29q-45 27 -108 39t-125 5zM367 554q66 30 146 24t134 -38q28 -17 34 -34l-146 -145q1 75 -52 128t-128 53zM265.5 272.5q-37.5 37.5 -37.5 90.5t37.5 90.5t90.5 37.5t90.5 -37.5t37.5 -90.5t-37.5 -90.5t-90.5 -37.5
t-90.5 37.5zM934 267l-52 -52q-15 22 -45 40q-45 27 -108 39t-125 5l47 46q66 26 142 19.5t128 -37.5q28 -17 34 -33q-9 -15 -21 -27v0z" />
    <glyph glyph-name="jia" unicode="&#xe604;" 
d="M909 206h-314v-320q0 -39 -27.5 -67t-66.5 -28t-66.5 28t-27.5 67v320h-313q-39 0 -66.5 28t-27.5 67.5t27.5 67.5t66.5 28h313v319q0 40 27.5 68t66.5 28t66.5 -28t27.5 -68v-319h313q39 0 66.5 -28t27.5 -67.5t-27.5 -67.5t-65.5 -28z" />
    <glyph glyph-name="gongcheng1" unicode="&#xe7c9;" 
d="M512 896l-427 -261v-499l427 -258l427 258v499zM473 -1l-315 195v363l315 -200v-358v0zM198 630l314 162l305 -174l-305 -183zM858 194l-314 -195v358l314 200v-363z" />
    <glyph glyph-name="jiancai" unicode="&#xe608;" 
d="M1024 375q0 44 -31 75l-413 416q-30 30 -75 30t-74 -30l-150 -150q-31 -31 -31 -75.5t31 -75.5l413 -415q31 -31 74.5 -31t74.5 31l39 39l29 -29q10 -10 10.5 -24.5t-8.5 -23.5l-106 -91q-10 -11 -24.5 -11t-24.5 11l-275 276q-31 31 -74.5 31t-74.5 -31l-11 -11l-68 68
q-10 10 -24.5 10t-24.5 -10v0l-25 -25l-150 -150q-31 -31 -31 -75t31 -76l125 -125q30 -31 74 -31t75 31l150 150v0l25 25q10 11 10 25.5t-10 24.5l-107 108l11 10q10 11 24.5 11t24.5 -11v0l4 -3v0l271 -272q31 -32 75 -32q43 0 72 30l106 91q31 31 31 75t-31 75l-29 29
l61 61q31 31 31 75v0v0zM330 28v0l-75 -75q-10 -10 -24.5 -10t-25.5 10l-124 125q-11 11 -11 25.5t11 25.5l150 150l174 -176l-75 -75v0zM943 350l-150 -150q-10 -10 -24.5 -10t-24.5 10l-413 415q-11 11 -11 25.5t11 24.5l149 151q11 10 25.5 10t24.5 -10l413 -416
q10 -10 10 -24.5t-10 -25.5v0v0zM531 761q-10 11 -24.5 11t-25 -10.5t-11 -25t10.5 -24.5l355 -365q11 -11 25 -11q15 0 25 10.5t10.5 25t-9.5 25.5z" />
    <glyph glyph-name="youhaowuruanzhuang" unicode="&#xe613;" 
d="M1019 483q0 15 -8.5 30.5t-22.5 25.5q-27 18 -67 45t-67 45q-4 3 -4 9v42.5v42.5q0 47 -26 82q-44 60 -119 60h-192.5h-193.5q-13 0 -24 -2q-50 -7 -84.5 -44.5t-36.5 -88.5v-44.5v-44.5q0 -6 -5 -10q-30 -20 -72.5 -49t-61.5 -42q-30 -20 -30 -67v-481q0 -26 15.5 -40.5
t35.5 -14.5h130v-30q0 -11 8.5 -19.5t20 -8.5t20 8.5t8.5 19.5v30h563v-30v0q0 -11 8.5 -19.5t20 -8.5t20 8.5t8.5 19.5v1v29h101q27 0 41 15t14 42v0q1 244 1 329q-1 110 -1 160zM230 721q0 33 19 56.5t50 29.5q8 1 18 1q195 1 389 0q34 0 57.5 -19.5t29.5 -52.5
q1 -6 1 -15v-369v-6h-564v6v111v147v111zM61 464q0 27 24 43q1 0 83 56q2 1 5 3v-223h-112v7v114v0zM962 8q0 -6 -3.5 -10t-8.5 -4h-873q-16 0 -16 18v275h901v-279v0zM963 349v-5h-113v220l5 -3q81 -55 83 -57q25 -16 25 -42v-113z" />
    <glyph glyph-name="jixielei06" unicode="&#xe60e;" 
d="M851 308q4 3 20.5 6.5t22.5 12t1 28.5q-7 26 10.5 41t43.5 6q17 -5 26.5 -0.5t15.5 21.5q5 15 11 25q13 18 10.5 32t-23.5 25q-17 10 -16 34t19 32q22 9 26 23t-7 32q-5 9 -6 18q-5 22 -16.5 30t-33.5 1q-18 -5 -35 12t-10 34q9 24 2.5 37t-30.5 20q-13 3 -28 13
q-21 13 -36 -8q-20 -29 -41.5 -28t-38.5 32q-12 21 -33 11q-19 -8 -32 -11q-23 -5 -31 -17t-1 -35q5 -16 -12.5 -32.5t-32.5 -9.5q-17 9 -28.5 5.5t-18 -12t-11.5 -24.5q-3 -5 -10 -19q-19 -27 13 -47q22 -14 21 -37.5t-24 -33.5q-18 -9 -22 -19t5 -27q7 -14 10 -29
q4 -21 15 -27t32 -1q21 6 37 -11.5t8 -38.5t-2 -32.5t27 -17.5q10 -3 20 -9q36 -25 56 13q8 15 32 16t30 -14q21 -49 65 -20v0v0zM799 358q-9 20 -39.5 21t-42.5 -18q-14 -23 -36 -9l-10 5l-9 4.5t-7.5 6t-3 9.5t3.5 14q8 21 -13 44t-43 17q-4 -1 -7.5 -1.5t-6.5 0t-5 1
t-4 2.5l-3 3t-2.5 4.5t-2 4.5t-2 5t-1.5 5q-7 12 -6 23t17 18q21 11 21.5 40.5t-19.5 44.5q-4 3 -7.5 5.5t-5 3.5t-2 2t-1 1.5t0 1t0.5 1.5q7 25 20 44q4 6 8.5 6.5t11 -3t8.5 -3.5q21 -5 43 15.5t16 40.5q-5 10 -1 17.5t8.5 10t14.5 5.5q13 7 24.5 6.5t19.5 -17.5
q9 -19 39.5 -20t41.5 17q8 14 17 15.5t21 -6.5q3 -2 9.5 -5t9.5 -5t6 -6t3 -9.5t-4 -14.5q-8 -18 12 -41t40 -19q16 4 25 -1t14 -22q5 -13 3.5 -24t-17.5 -19q-19 -9 -20 -39.5t18 -41.5q10 -5 13 -11t2 -10.5t-5 -12.5t-5 -12q-4 -14 -12.5 -17.5t-22.5 1.5
q-20 7 -42.5 -13.5t-17.5 -40.5q1 -5 1.5 -9t0 -7t-2.5 -5.5t-3 -4t-5 -3.5l-5 -2.5t-6.5 -2.5t-6.5 -2q-12 -7 -21.5 -5t-16.5 17v0zM914 601q-21 60 -80 88.5t-119 7.5t-88 -80t-6 -119q22 -62 80 -90t118 -6.5t88 80t7 119.5v0zM663 511q-16 44 4 86t63 57q42 15 84 -5
t58 -62q16 -43 -4.5 -85.5t-63.5 -57.5t-84 4.5t-57 62.5v0zM332 410q4 3 20.5 6.5t22 12t0.5 28.5q-7 26 10.5 41t43.5 7q18 -6 27.5 -1.5t14.5 21.5q5 15 12 26q12 17 9.5 31t-22.5 25q-18 10 -17 34t20 32q22 9 25.5 23t-7.5 32q-4 9 -6 18q-4 22 -15.5 30t-34.5 1
q-18 -5 -34.5 12.5t-9.5 33.5q9 24 2 37t-30 20q-13 3 -28 13q-21 13 -36 -8q-20 -29 -41.5 -27.5t-39.5 31.5q-12 21 -32 11q-20 -8 -33 -11q-23 -5 -31 -17t-1 -35q5 -16 -12.5 -32.5t-32.5 -9.5q-16 9 -28 5.5t-18.5 -12t-11.5 -24.5q-2 -5 -9 -19q-20 -27 12 -47
q22 -14 21 -37t-24 -34q-17 -9 -21 -19t4 -27q8 -14 11 -29q4 -21 14.5 -27t31.5 -1q21 6 37 -11.5t9 -38.5q-8 -21 -2 -32.5t26 -17.5q11 -3 20 -9q37 -25 56 13q8 15 32.5 16t30.5 -14q20 -49 65 -20v0zM280 460q-9 20 -40 21.5t-43 -18.5q-14 -23 -36 -9q-3 2 -9.5 5
t-9.5 4.5t-7 6t-3 9.5t3 14q8 21 -12.5 44t-42.5 17q-5 -1 -8 -1.5t-6 0t-5 1t-4 2.5l-3 3t-2.5 4.5t-2 4.5t-2 5t-2.5 6q-6 11 -5 22t16 18q22 11 22.5 40.5t-19.5 44.5q-5 3 -8 5.5t-4.5 3.5t-2.5 2.5l-1 1.5v1v1q7 26 20 44q4 6 8.5 6.5t11 -3t8.5 -3.5q21 -5 43.5 15.5
t16.5 40.5q-5 11 -1 18t8 9.5t15 6.5q12 6 24 5.5t19 -16.5q9 -20 39.5 -21t41.5 17q8 14 17.5 15.5t20.5 -6.5q3 -2 9.5 -5t9.5 -5t6.5 -5.5t3 -9.5t-3.5 -14q-8 -19 12 -42t39 -19q17 4 25.5 -1t13.5 -22q6 -13 4 -24t-17 -18q-19 -10 -20 -40.5t18 -40.5q9 -6 12.5 -12
t2 -10.5t-5 -12.5t-4.5 -12q-5 -14 -13.5 -17.5t-22.5 1.5q-20 7 -42.5 -13.5t-16.5 -40.5q1 -5 1 -9v-7t-2.5 -5.5t-3 -4t-5 -3.5t-5.5 -2.5t-6 -2.5t-6 -2q-12 -6 -22 -4.5t-16 16.5v0zM395 703q-21 60 -80 88.5t-119.5 7.5t-88 -80t-6.5 -119q22 -62 80 -90t118.5 -6.5
t88.5 80t7 119.5v0zM144 613q-16 44 3.5 86t62.5 58q43 14 85 -5.5t57 -62.5q16 -43 -4 -85.5t-63 -57.5t-84.5 4.5t-56.5 62.5v0zM549 -112q4 2 20.5 6t22.5 12.5t1 27.5q-7 26 10 41.5t44 6.5q17 -6 26.5 -1t15.5 21q4 16 11 26q13 17 10.5 31t-23.5 26q-17 9 -16 33
t19 32q22 9 26 23t-7 33q-5 8 -7 17q-4 23 -15.5 30.5t-33.5 1.5q-19 -6 -35.5 11.5t-9.5 34.5q9 24 2.5 36.5t-30.5 19.5q-13 4 -28 13q-21 14 -36 -7q-20 -29 -41.5 -28t-39.5 32q-11 20 -32 11q-20 -9 -32 -12q-23 -5 -31.5 -17t-0.5 -35q5 -16 -12.5 -32t-32.5 -10
q-17 9 -29 5.5t-18 -12t-11 -24.5q-3 -5 -10 -18q-19 -28 13 -48q21 -14 20.5 -37t-23.5 -34q-18 -8 -22 -18.5t5 -27.5q7 -14 10 -29q4 -20 15 -26.5t32 -0.5q20 5 36.5 -12.5t8.5 -37.5q-8 -22 -2 -33t27 -17q10 -3 19 -10q37 -24 57 13q8 15 32 16t30 -13q20 -49 65 -20
v0v0zM497 -63q-9 21 -39.5 22t-43.5 -19q-13 -22 -36 -9q-3 2 -9.5 5t-9 4.5t-7 6t-3 9.5t3.5 14q8 22 -13 44.5t-43 16.5q-4 -1 -7.5 -1.5t-6.5 0.5t-5 1t-4 2.5t-3 3.5t-2.5 4l-2 4t-2 5.5t-1.5 5.5q-7 12 -6 22.5t17 18.5q21 10 21.5 40t-19.5 44q-5 3 -8 5.5t-4.5 4
t-2 2.5t-1 1.5t0 1l0.5 0.5q7 26 20 45q4 5 8 5.5t11 -2.5t9 -4q21 -5 43 15.5t16 41.5q-5 10 -1 17t8.5 9.5t14.5 6.5q12 7 24 6t20 -17q9 -20 39 -21t41 18q8 13 17.5 14.5t21.5 -6.5q3 -1 9.5 -4t9.5 -5t6 -6t3 -10t-4 -14q-8 -18 12 -41t40 -19q16 3 25 -2t13 -21
q6 -14 4.5 -25t-17.5 -18q-19 -9 -20 -40t18 -41q10 -5 13 -11.5t2 -10.5t-5 -12.5t-5 -11.5q-5 -15 -13 -18.5t-23 2.5q-20 7 -42 -13.5t-17 -41.5q1 -5 1 -9v-6.5t-2 -5.5l-3 -4.5t-5 -3.5l-5 -2.5t-6.5 -2.5t-6.5 -2q-12 -6 -21.5 -4.5t-16.5 16.5v0v0zM612 180
q-21 60 -80 88.5t-119 7.5t-88 -79.5t-6 -119.5q21 -61 79 -89.5t118.5 -7t88.5 80.5t7 119v0zM361 90q-16 44 3.5 86.5t63.5 57.5q42 15 84 -5t58 -62q15 -43 -5 -86t-63 -58t-84 4.5t-57 62.5v0z" />
    <glyph glyph-name="feiyong" unicode="&#xe6a6;" 
d="M273 589l326 300q8 7 18.5 7t17.5 -7l253 -236q8 -7 8 -17t-8 -17l-35 -30q-44 -2 -68 0l49 47l-217 202l-276 -249q-57 -1 -68 0zM171 589l189 295q6 9 16 11.5t19 -2.5l151 -65q-13 -13 -27 -14t-41 -21l-86 47l-153 -251q-26 -1 -41 -0.5t-27 0.5zM896 -128h-768
q-53 0 -90.5 35t-37.5 85v498q0 47 40 73t97 26h750q57 0 97 -26t40 -73v-498q0 -50 -37.5 -85t-90.5 -35v0v0zM142 521q-74 0 -74 -49v-483q0 -49 74 -49h740q74 0 74 49v483q0 49 -74 49h-740zM734 145q-49 0 -84 35t-35 84.5t35 84.5t84 35t84.5 -35t35.5 -84.5
t-35.5 -84.5t-84.5 -35v0v0zM734 324q-25 0 -42.5 -17.5t-17.5 -42t17.5 -42t42.5 -17.5t42.5 17.5t17.5 42t-17.5 42t-42.5 17.5v0v0z" />
    <glyph glyph-name="mumian" unicode="&#xe60b;" 
d="M228 93q27 0 97 59q24 -24 51 -41.5t47 -17.5q22 0 43 16t47 45q60 -61 102 -61q20 0 46.5 17.5t41.5 43.5q25 -23 54 -42t48 -19q21 0 51 18.5t53 42.5q3 -3 22.5 -28t33.5 -31q1 -1 6 -2.5t8 -2.5q11 -6 11 -21q0 -9 -7 -16t-16 -7q-13 0 -32 13.5t-30 28.5
q-66 -42 -98 -42q-21 0 -43.5 10.5t-37.5 21t-18 10.5q-2 0 -8 -4t-14.5 -10.5t-12.5 -9.5q-12 -8 -29 -13t-29 -5q-22 0 -45.5 10.5t-38 21t-16.5 10.5q-4 0 -17 -10.5t-33 -21t-42 -10.5q-21 0 -44.5 11t-39 22t-16.5 11q-3 0 -18.5 -11t-36.5 -22t-37 -11q-20 0 -42 10.5
t-37.5 21t-18.5 10.5l-13.5 -10.5t-32 -21t-30.5 -10.5t-17.5 8.5t-5.5 16.5q0 13 11 19q1 1 4 2t7.5 1.5t7.5 1.5q24 5 60 59q6 -4 30 -21t43.5 -28.5t30.5 -11.5v0zM228 211q27 0 97 58q24 -23 51 -40.5t47 -17.5q22 0 43 16t47 45q60 -61 102 -61q20 0 46.5 17.5
t41.5 43.5q25 -23 54 -42t48 -19q21 0 51 18.5t53 42.5q3 -3 22.5 -28.5t33.5 -30.5q1 -1 6 -2.5t8 -2.5q11 -6 11 -21q0 -9 -7 -16.5t-16 -7.5q-13 0 -32 14t-30 29q-66 -43 -98 -43q-21 0 -43.5 11t-37.5 21.5t-18 10.5q-2 0 -8 -4.5t-14.5 -10.5t-12.5 -9
q-11 -8 -28.5 -13.5t-29.5 -5.5q-22 0 -45.5 11t-38 21.5t-16.5 10.5q-6 0 -20 -14q-10 -10 -34.5 -19.5t-37.5 -9.5t-27.5 5t-26.5 11.5t-22.5 13t-16.5 11t-7 4.5t-35.5 -22.5t-56.5 -22.5q-20 0 -42 11t-37.5 21.5t-18.5 10.5q-2 0 -7 -5.5t-7 -6.5q-34 -24 -46 -26
q-2 0 -8 -2.5t-8 -2.5q-12 0 -17.5 9t-5.5 17q0 13 11 19q1 1 4 1.5t7.5 1.5t7.5 2q25 5 60 59q6 -4 29.5 -21.5t43.5 -28.5t31 -11zM643 638q23 -18 67 -45q6 -4 27 -19t33 -21q18 -12 60 -39t69 -45t58 -40.5t47 -38.5q9 -6 9 -26t-14 -33.5t-32 -13.5q-4 0 -13.5 3.5
t-14.5 8.5q-55 36 -166 110.5t-185 123.5t-77 49q-2 0 -76 -49.5t-183 -122.5t-167 -111q-16 -12 -30 -12q-22 0 -33 14t-11 33q0 31 48 59q8 5 25 17t28 19q103 71 248.5 167t150.5 96q2 0 24.5 -14.5t55.5 -36.5t52 -33z" />
    <glyph glyph-name="jianquminus25" unicode="&#xe68a;" 
d="M1015 384q0 -36 -26 -62t-62 -26h-830q-36 0 -62 26t-26 62t26 62t62 26h830q36 0 62 -26t26 -62z" />
    <glyph glyph-name="minusj" unicode="&#xe634;" horiz-adv-x="1026" 
d="M881 268l-763 3q-24 0 -46 8.5t-38 24.5t-25.5 38.5t-9.5 51.5q0 28 9.5 51.5t25.5 39.5t38 25t46 9h763q24 0 45.5 -9t37.5 -25t25.5 -39.5t9.5 -51.5q0 -29 -9.5 -52t-25.5 -39.5t-37.5 -25.5t-45.5 -9z" />
    <glyph glyph-name="chuyi" unicode="&#xe6ad;" 
d="M953 488h-885q-24 0 -40.5 -21t-20 -51t0 -60t20 -51.5t40.5 -21.5h885v205zM400 62.5q0 -45.5 32.5 -78t78.5 -32.5t78 32.5t32 78t-32 78t-78 32.5t-78.5 -32.5t-32.5 -78zM400 708.5q0 -45.5 32.5 -78t78.5 -32.5t78 32.5t32 78t-32 78t-78 32.5t-78.5 -32.5
t-32.5 -78z" />
    <glyph glyph-name="wrench" unicode="&#xe609;" 
d="M973 691q-9 -11 -83 -78q-31 -32 -71 -32t-71.5 31.5t-31.5 71.5t31 71q18 18 37.5 38.5t31 33t10.5 12.5q-82 40 -177 24t-163 -84q-62 -62 -81 -147t9 -163l-355 -355q-40 -39 -40 -95t39.5 -95t95 -39t95.5 39l355 355q78 -28 163 -8.5t147 80.5q68 68 83.5 162.5
t-24.5 177.5zM866 399q-56 -56 -133.5 -66.5t-143.5 26.5l-103 -102v-1l-285 -284q-20 -20 -47.5 -20t-47.5 19.5t-20 47.5t20 48l388 387q-37 66 -26.5 144t66.5 133q66 66 163 67q-47 -49 -46 -117t49 -116t116 -49t117 46q-1 -97 -67 -163z" />
    <glyph glyph-name="xinzeng" unicode="&#xe6a7;" horiz-adv-x="1033" 
d="M935 287h-321v-318q0 -40 -28.5 -68.5t-68.5 -28.5h-1q-40 0 -68.5 28.5t-28.5 68.5v318h-322q-40 0 -68.5 28.5t-28.5 68.5t28.5 68.5t68.5 28.5h322v318q0 40 28.5 68.5t68.5 28.5h1q40 0 68.5 -28.5t28.5 -68.5v-318h321q40 0 68.5 -28.5t28.5 -68.5t-28.5 -68.5
t-68.5 -28.5z" />
    <glyph glyph-name="cost-16" unicode="&#xe65e;" horiz-adv-x="1115" 
d="M982 893h-2h-832q-121 0 -121 -165v-719q0 -50 35.5 -85.5t85.5 -35.5h832q50 0 85.5 35.5t35.5 85.5v719q0 54 -36.5 109t-82.5 56zM1034 192h-172q-41 0 -69.5 29t-28.5 69.5t28.5 69t69.5 28.5h172v-196v0zM1034 455h-172q-68 0 -116.5 -48.5t-48.5 -116.5t48.5 -116
t116.5 -48h172v-117q0 -22 -16 -38t-38 -16h-832q-23 0 -39 16t-16 38v611q26 -13 55 -13h830h2q22 0 38 -16t16 -38v-98zM105 709h831q10 0 10 -8v-27h-798q-10 0 -17 1t-11.5 3.5t-7.5 4t-4 6.5t-1.5 6.5t-1 7.5zM1034 661q-10 5 -21 8v32q0 32 -22.5 54.5t-54.5 22.5
h-833q-6 18 11.5 33t33.5 15h830h2q20 0 37 -35.5t17 -62.5v-67zM831 290q0 -28 19.5 -47.5t47.5 -19.5t48 19.5t20 47.5t-20 48t-48 20t-47.5 -20t-19.5 -48zM907 290q0 -9 -9 -9t-9 9t9 9t9 -9z" />
    <glyph glyph-name="icon" unicode="&#xe612;" 
d="M710 894h-542q-69 0 -117.5 -48.5t-48.5 -117.5v-542q0 -69 48.5 -117.5t117.5 -48.5h542q69 0 117.5 48.5t48.5 117.5v542q0 69 -48.5 117.5t-117.5 48.5zM690 96h-503q-46 0 -79 33t-33 80v500q0 47 33 80t79 33h503q47 0 80 -33t33 -80v-500q0 -47 -33 -80t-80 -33z
M948 675v-612q0 -47 -33 -79.5t-79 -32.5h-615v-76h635q68 0 116.5 48.5t48.5 116.5v635h-73zM694 493h-219v219h-72v-219h-219v-72h219v-219h72v219h219v72z" />
    <glyph glyph-name="nimu" unicode="&#xe648;" 
d="M937 -69h-411q-13 0 -22 8.5t-9 21.5v0q0 12 9 21t22 9v0h412q9 0 17 8.5t8 21.5v0q0 10 -5 19v0l-2 2l-402 757q-7 14 -21 14v0q-14 0 -22 -15v0l-199 -357q-6 -11 -18 -14.5t-23 2.5v0q-11 6 -14.5 18.5t2.5 22.5v0l199 357q11 21 31 33.5t44 12.5v0q23 0 43 -12.5
t32 -33.5v0l401 -755q15 -23 15 -51v0q0 -37 -25 -63.5t-61 -26.5v0h-1zM64 -69q-13 0 -22 8v0q-9 9 -9 22v0v480q0 12 9 21v0q9 9 22 9v0h549q13 0 21 -9v0q9 -9 9 -21v0v-480q0 -13 -9 -22v0q-8 -8 -21 -8v0h-549zM613 -39zM94 -9h489v420h-489v-420zM62 257
q-7 0 -12.5 5.5t-5.5 12.5v0q0 8 5.5 13.5t12.5 5.5v0h531q8 0 13 -5.5t5 -13.5v0q0 -7 -5 -12.5t-13 -5.5v0h-531zM62 100q-7 0 -12.5 5.5t-5.5 13.5v0q0 7 5.5 12.5t12.5 5.5v0h531q8 0 13 -5.5t5 -12.5v0q0 -8 -5 -13.5t-13 -5.5v0h-531z" />
    <glyph glyph-name="kuohaoyou" unicode="&#xe7d3;" 
d="M466 -85q180 197 180 477q0 283 -180 483h-87q180 -205 180 -482q0 -274 -179 -478h86z" />
    <glyph glyph-name="kuohaozuo" unicode="&#xe7d4;" 
d="M560 -85q-181 197 -181 477q0 283 181 483h86q-179 -205 -179 -482q0 -274 178 -478h-85z" />
    <glyph glyph-name="bianji" unicode="&#xe62f;" 
d="M852 356v-359q0 4 3 4h-706q3 0 3 -3v713q0 -3 -4 -3h355q25 0 42 17t17 41.5t-17 42t-42 17.5h-355q-46 0 -79 -33.5t-33 -81.5v-713q0 -48 33 -81.5t80 -33.5h706q47 0 80.5 33.5t33.5 80.5v359q0 24 -17.5 41.5t-41.5 17.5t-41 -17.5t-17 -41.5v0zM943 803v0v0
l-431 -435v0v0l431 435v0v0zM984 845v0q17 -18 17 -42t-17 -42l-431 -435q-17 -17 -41 -17t-41 17t-17 41.5t17 41.5l431 436q17 17 41 17t41 -17v0z" />
    <glyph glyph-name="iconMoney" unicode="&#xe610;" 
d="M512 408q134 0 246 32.5t176.5 88.5t64.5 123.5t-64.5 123.5t-176.5 88.5t-246 32.5t-246 -32.5t-176.5 -88.5t-64.5 -123.5t64.5 -123.5t176.5 -88.5t246 -32.5zM512 835q90 0 171 -16.5t135.5 -42.5t86 -58.5t31.5 -65t-31.5 -65t-86 -58.5t-135.5 -42.5t-171 -16.5
t-171 16.5t-135.5 42.5t-86 58.5t-31.5 65t31.5 65t86 58.5t135.5 42.5t171 16.5zM512 291q-90 0 -171 16.5t-135.5 42.5t-86 58.5t-31.5 64.5h-63q0 -67 64.5 -123t176.5 -88.5t246 -32.5t246 32.5t176 88.5t65 123h-63q0 -32 -31.5 -64.5t-86 -58.5t-135.5 -42.5
t-171 -16.5zM936 294q0 -32 -31.5 -64.5t-86 -58.5t-135.5 -42.5t-171 -16.5t-171 16.5t-135.5 42.5t-86 58.5t-31.5 64.5v0h-63v0q0 -67 64.5 -123t176.5 -88.5t246 -32.5t246 32.5t176.5 88.5t64.5 123v0h-63v0zM936 115q0 -32 -31.5 -64.5t-86 -58.5t-135.5 -42.5
t-171 -16.5t-171 16.5t-135.5 42.5t-86 58.5t-31.5 64.5v0h-63q0 -67 64.5 -123t176.5 -88.5t246 -32.5t246 32.5t176.5 88.5t64.5 123v0h-63zM396 718v-63h85v-40h-85v-62h85v-40h62v40h85v62h-85v40h85v63h-41l52 52l-44 44l-83 -83l-83 83l-44 -44l52 -52h-41z" />
    <glyph glyph-name="jinyong" unicode="&#xe676;" 
d="M512 896q-139 0 -257 -68.5t-186.5 -186.5t-68.5 -257t68.5 -257t186.5 -186.5t257 -68.5t257 68.5t186.5 186.5t68.5 257t-68.5 257t-186.5 186.5t-257 68.5zM896 384q0 -122 -71 -222l-535 535q100 71 222 71q159 0 271.5 -112.5t112.5 -271.5zM128 384q0 122 71 222
l535 -535q-100 -71 -222 -71q-104 0 -192.5 51.5t-140 140t-51.5 192.5z" />
    <glyph glyph-name="shuidianmeijiaofei" unicode="&#xe603;" horiz-adv-x="1033" 
d="M863 286q-7 108 -69 198l-263 383q-16 23 -44 23v0q-28 0 -44 -23l-264 -383q-63 -90 -69 -198q-6 -102 39 -194q43 -89 121 -145q83 -59 187 -66q15 -1 29.5 -1t28.5 1q104 7 188 66q78 56 121 145q44 92 39 194zM765 120q-35 -74 -100 -120q-68 -49 -154 -55
q-25 -1 -49 0q-86 6 -155 55q-64 46 -100 120q-37 77 -32 163q5 90 57 165l255 369l254 -370q52 -75 57 -165q5 -85 -33 -162zM652 363h-155q-5 0 -8.5 4t-2.5 8l25 144q2 8 -5.5 11.5t-13.5 -2.5l-210 -260q-4 -5 -1.5 -11t9.5 -6h161q5 0 8.5 -4t2.5 -9l-23 -134
q-2 -8 5.5 -11.5t12.5 3.5l203 249q4 6 1.5 12t-9.5 6z" />
    <glyph glyph-name="feiyongguanli" unicode="&#xe602;" 
d="M946 718q5 0 8.5 -4.5t3.5 -9.5v-681q0 -6 -3.5 -10.5t-8.5 -4.5h-874q-4 0 -7.5 4.5t-3.5 10.5v681q0 5 3.5 9.5t7.5 4.5h874zM946 769h-874q-26 0 -44 -19t-18 -46v-681q0 -27 18 -46.5t44 -19.5h874q26 0 44.5 19.5t18.5 46.5v681q0 27 -18.5 46t-44.5 19v0zM61 574
h898v-63h-898v63zM289 231h-176v238h176v-238zM164 282h74v136h-74v-136zM119 184h125v-63h-125v63zM337 184h125v-63h-125v63zM555 184h125v-63h-125v63zM774 184h125v-63h-125v63z" />
    <glyph glyph-name="feiyong1" unicode="&#xe774;" 
d="M1019 804q-9 38 -91.5 64t-196.5 26q-111 0 -193.5 -25.5t-93.5 -62.5q-1 -5 -1 -12v-218q-70 15 -153 15q-113 0 -195.5 -26t-91.5 -64l-1 -164v-369q0 -4 1 -9q11 -35 93 -59.5t194 -24.5t194.5 24.5t92.5 59.5q2 5 2 9v47q70 -15 152 -15q112 0 194.5 24.5t93.5 60.5
q1 4 1 9v546zM51 506q18 13 52 24q77 25 187 25q85 0 153 -15q19 -5 35 -10l1 -0.5l1 -0.5q32 -10 50 -23q11 -8 12 -13q-1 -4 -12 -12q-18 -13 -50 -23q-1 -1 -2 -1q-16 -5 -35 -10q-68 -15 -153 -15q-110 0 -187 25q-34 11 -52 24q-11 8 -12 12q1 5 12 13v0zM542 61v-92v0
q-1 -3 -6.5 -7.5t-22 -13t-39.5 -15.5q-78 -23 -184 -23t-183 23q-23 7 -39.5 15.5t-22 13t-6.5 7.5v0v109q43 -18 113 -30q66 -12 138.5 -12t138.5 12q21 3 39 8q28 6 50 13q13 5 24 9v-17v0zM542 238v-94v-1q-1 -2 -6 -6.5t-20 -12.5t-36 -14q-4 -1 -6 -2q-15 -4 -31 -8
q-69 -15 -153 -15q-106 0 -183 23q-23 7 -40 15t-22 13t-6 8v0v109q43 -19 113 -31q66 -11 138.5 -11t138.5 11q6 1 14 3q46 9 79 20q11 4 20 8v-15zM542 413v-98v0q-1 -2 -6 -6.5t-20 -12.5t-36 -15l-6 -2q-15 -4 -31 -7q-69 -15 -153 -15q-106 0 -183 22q-23 7 -39.5 15.5
t-22 13t-6.5 7.5v0v109q43 -18 113 -30q66 -11 138.5 -11t138.5 11q6 1 14 3q48 9 83 21l16 6v-11zM983 94v0q-1 -2 -6.5 -7t-22 -13t-39.5 -15q-77 -23 -184 -23q-84 0 -152 15v125q7 -2 14 -3q66 -11 138.5 -11t138.5 11q69 12 113 31v-110v0zM983 272v0q-1 -3 -6.5 -7.5
t-22 -13t-39.5 -15.5q-77 -23 -184 -23q-84 0 -152 15v125q8 -1 14 -2q66 -12 138.5 -12t138.5 12q69 12 113 30v-109v0zM983 447v0q-1 -3 -6.5 -8t-22 -13t-39.5 -15q-77 -23 -184 -23q-84 0 -152 15l-1 98q-4 17 -24 32q19 -4 39 -8q66 -11 138.5 -11t138.5 11
q69 12 113 31v-109v0zM983 618v0q-1 -2 -6.5 -7t-22 -13.5t-39.5 -15.5q-77 -22 -183.5 -22t-183.5 22q-23 7 -39.5 15.5t-22 13.5t-6.5 7v0v109q44 -18 113 -30q66 -11 138.5 -11t138.5 11q69 12 113 30v-109v0zM971 784q-18 -13 -52 -24q-78 -25 -187.5 -25t-187.5 25
q-34 11 -52 24q-11 8 -12 13q1 4 12 12q18 13 52 24q78 25 187.5 25t187.5 -25q34 -11 52 -24q11 -8 12 -12q-1 -5 -12 -13z" />
    <glyph glyph-name="zhankai" unicode="&#xe615;" 
d="M956 894h-888q-27 0 -46.5 -19.5t-19.5 -47.5v-887q0 -27 19.5 -46.5t46.5 -19.5h888q27 0 46.5 19.5t19.5 46.5v887q0 28 -19.5 47.5t-46.5 19.5zM948 14q0 -28 -19 -47t-47 -19h-741q-27 0 -46.5 19t-19.5 47v741q0 27 19.5 46.5t46.5 19.5h741q28 0 47 -19.5t19 -46.5
v-741zM160 501l323 -323q12 -12 29 -12t28 12l324 323q12 12 12 29h-728q0 -17 12 -29z" />
    <glyph glyph-name="icon-close" unicode="&#xe645;" 
d="M567 384l410 427q11 12 11 28t-12 27.5t-28 11t-28 -11.5l-408 -425l-408 425q-12 11 -28 11.5t-28 -11t-12 -27.5t11 -28l410 -427l-410 -427q-11 -12 -11 -28t12 -28q11 -11 27 -11q17 0 29 12l408 425l408 -425q12 -12 29 -12q16 0 27 11q12 12 12 28t-11 28z" />
    <glyph glyph-name="shouqi" unicode="&#xe631;" 
d="M68 -126h888q27 0 46.5 19.5t19.5 47.5v887q0 27 -19.5 46.5t-46.5 19.5h-888q-27 0 -46.5 -19.5t-19.5 -46.5v-887q0 -28 19.5 -47.5t46.5 -19.5zM76 754q0 28 19 47t47 19h741q27 0 46.5 -19t19.5 -47v-741q0 -27 -19.5 -46.5t-46.5 -19.5h-741q-28 0 -47 19.5
t-19 46.5v741zM864 267l-323 323q-12 12 -29 12t-28 -12l-324 -323q-12 -12 -12 -29h728q0 17 -12 29z" />
    <glyph glyph-name="finance_book" unicode="&#xe649;" 
d="M954 889h-821q-13 0 -22 -9.5t-9 -22.5v-157h-32q-13 0 -22 -9.5t-9 -22.5v-63q0 -13 9 -22.5t22 -9.5h32v-126h-32q-13 0 -22 -9t-9 -22v-64q0 -13 9 -22t22 -9h32v-126h-32q-13 0 -22 -9.5t-9 -22.5v-63q0 -13 9 -22.5t22 -9.5h32v-157q0 -14 9 -23t22 -9h821
q13 0 22 9t9 23v946q0 13 -9 22.5t-22 9.5zM701 479v-63h-126v-64h126v-63h-126v-126h-63v126h-126v63h126v64h-126v63h66l-72 71l45 45l116 -116h5l116 116l45 -45l-71 -71h65z" />
    <glyph glyph-name="xiala" unicode="&#xe68f;" 
d="M511 357l48 83l47 82h-95h-95l48 -82z" />
    <glyph glyph-name="shangfla" unicode="&#xe690;" 
d="M598 415l-47 82l-48 83l-47 -83l-48 -82h95h95z" />
    <glyph glyph-name="minijiaju" unicode="&#xe8eb;" 
d="M786 870h-601q-60 0 -105 -45.5t-45 -104.5v-796q0 -13 11 -24t24 -11t24 11t11 24v115h778v-115q0 -13 11 -24t24.5 -11t24.5 11t11 24v796q-7 66 -54 108t-114 42zM185 808h610q35 0 61.5 -25t26.5 -63v-230h-786v230q0 35 25 61.5t63 26.5zM97 110v309h777v-309h-777z
M353 640.5q0 13.5 11 24.5t24 11h195q13 0 24 -11t11 -24.5t-11 -24.5t-24 -11h-195q-13 0 -24 11t-11 24.5zM618 269q0 -13 -11 -24t-24 -11h-195q-13 0 -24 11t-11 24t11 24t24 11h195q13 0 24 -11t11 -24z" />
    <glyph glyph-name="iconfontchuanghu" unicode="&#xe633;" 
d="M987 -58h-46v817q0 32 -23 55t-55 23h-697q-32 0 -55 -23t-23 -55v-817h-51q-12 0 -20 -8.5t-8 -20t8 -20t20 -8.5h950q12 0 20 8.5t8 20t-8 20t-20 8.5v0zM884 759v-294q-7 -2 -11 -7l-237 -236q-8 -8 -8 -20t8.5 -20t20 -8t19.5 8l208 208v-448h-341v1v456l146 146
q8 8 8 20t-8.5 20t-20 8t-19.5 -8l-106 -106v302h320q9 0 15 -6.5t6 -15.5v0zM145 759q0 9 6 15.5t15 6.5h320v-358l-188 -189q-8 -8 -8 -19.5t8 -20t20 -8.5t20 9l148 148v-400v-1h-341v817z" />
    <glyph glyph-name="jiajushenghuo" unicode="&#xe717;" 
d="M1004 -16v801q0 38 -27 65t-65 27h-369q-36 0 -61 -24q-27 24 -62 24h-309q-38 0 -65 -27t-27 -65v-801q0 -38 27 -65t65 -27h308q37 0 62 24q26 -24 61 -24h371q38 0 65 27t27 65h-1zM450 -16q0 -12 -9 -21.5t-22 -9.5h-308q-13 0 -22 9t-9 22v520h370v-520zM451 565
h-370v62h370v-62zM451 689h-370v97q0 12 9 21t21 9h309q12 0 21.5 -8.5t10.5 -21.5v-97h-1zM942 -16q0 -12 -9 -21.5t-21 -9.5h-371q-12 0 -21 9t-9 22h-1v401h431v-401h1zM943 447h-432v339q0 12 9 21t22 9h370q13 0 22.5 -8.5t9.5 -21.5v-339h-1zM601 263h61q13 0 22 9
t9 22q0 12 -9 21t-22 9h-61q-12 0 -21.5 -9t-9.5 -21.5t9.5 -21.5t21.5 -9zM662 568h-61q-12 0 -21.5 -9t-9.5 -22q0 -12 9 -21t22 -9h61q13 0 22 9t9 21.5t-9 21.5t-22 9z" />
    <glyph glyph-name="caiwuguanli" unicode="&#xe617;" 
d="M512 899q-233 -124 -458 -124v-276q10 -105 41 -196.5t69.5 -153.5t90 -114t91.5 -80.5t84 -50.5t58.5 -27t23.5 -8q9 3 23.5 8t58.5 27t84.5 50.5t91 80.5t89.5 114t70 153.5t41 196.5v276q-9 -1 -24.5 -0.5t-65 6t-100 17t-124.5 38t-144 63.5zM714 452v-80h-151v-59
h151v-80h-151v-76h-102v76h-151v80h151v59h-151v80h108l-108 220h113l89 -182l89 182h113l-108 -220h108z" />
    <glyph glyph-name="zuofei" unicode="&#xe61f;" 
d="M751 139l173 173q16 16 16 38v0q0 23 -16 39q-15 16 -38.5 16t-38.5 -16l-173 -173l-173 173q-15 16 -38.5 16t-38.5 -16q-16 -16 -16 -38v-1q0 -22 16 -38l173 -173l-173 -173q-16 -16 -16 -38.5t16 -38.5q15 -16 38.5 -16t38.5 16l173 173l173 -173q16 -16 38.5 -16
t38.5 16t16 38q0 23 -16 39zM369 -15h-187q-4 1 -10 7t-7 10v796q1 4 7 10t10 7h329v-216q0 -13 13.5 -26.5t26.5 -13.5h216v-70h81v115l-288 289l-4 3h-403q-29 0 -49 -20t-20 -49v-854q0 -28 20 -48.5t49 -20.5h216v81v0zM592 769l129 -129h-129v129z" />
    <glyph glyph-name="jiancai2" unicode="&#xe65c;" 
d="M948 820q-72 72 -180 72t-180 -72l-510 -510q-75 -74 -75 -180t75 -180.5t180.5 -74.5t179.5 75l510 510q75 74 75 179.5t-75 180.5zM633 775q54 54 135 54t135 -54q56 -56 56 -135q0 -53 -26 -97q-59 77 -146.5 121t-184.5 44q-19 0 -38 -2zM408 514q-19 0 -38 -2
l110 110q59 22 122 22q86 0 163 -40.5t126 -111.5l-148 -148q-59 80 -147.5 125t-187.5 45zM123 -5q-56 56 -56 135t56 135t135.5 56t135.5 -56t56 -135t-56 -135q-55 -54 -136 -54t-135 54zM438 310q-38 39 -90.5 57.5t-107.5 14.5l46 46q59 22 122 22q86 0 163 -40.5
t126 -111.5l-184 -184v16q0 106 -75 180z" />
    <glyph glyph-name="feiyong2" unicode="&#xe606;" 
d="M629 299h-233q-13 0 -22 9.5t-9 22t9 22t22 10.5h233q13 0 22.5 -9.5t9.5 -23t-9.5 -22.5t-22.5 -9v0zM639 195h-253q-14 0 -23 9t-9 22.5t9 23t23 9.5h253q13 0 22.5 -9.5t9.5 -23t-9.5 -22.5t-22.5 -9zM512 50q-13 0 -22.5 9.5t-9.5 22.5v227q0 13 9.5 22.5t22.5 9.5
t22.5 -9.5t9.5 -22.5v-227q0 -13 -9.5 -22.5t-22.5 -9.5zM512 311q-14 0 -23 10l-92 99q-8 9 -8 21q0 14 9.5 23t22.5 9q14 0 23 -9l92 -99q8 -9 8 -22t-9.5 -22.5t-22.5 -9.5v0zM512 311v0q-13 0 -22.5 9.5t-9.5 22.5t9 22l91 99q10 9 23 9q14 0 23 -9t9 -23q0 -12 -8 -21
l-91 -99q-10 -10 -24 -10zM497 -128q-254 0 -373 144q-49 59 -65 134.5t1 158.5q72 250 290 354q-62 50 -56 127q0 4 2 9q9 23 27.5 41t42.5 28t45.5 16.5t46.5 8.5t34.5 2.5t20.5 0.5q13 0 22 -9.5t9 -22.5v-1v0q0 -13 -9 -22t-22 -9h-2q-38 1 -88.5 -11t-65.5 -41
q-1 -30 14 -48t50 -41l12 -8q7 3 14 3q13 0 22.5 -9.5t9.5 -22.5t-9.5 -22.5t-22.5 -9.5q-10 0 -18 6q-8 -4 -16 -7q-19 -8 -32 -14t-40 -21t-47 -30.5t-47.5 -42.5t-48 -56.5t-41.5 -72t-35 -90.5q-14 -67 -1 -128.5t52 -108.5q104 -126 339 -121q12 1 22 -8.5t10 -22.5v-1
q0 -13 -9 -22.5t-22 -9.5h-16zM528 -128h-16q-14 0 -23 10t-9 23q0 14 9.5 23.5t23.5 7.5q233 -7 338 121q81 98 50 239q-13 47 -34 89.5t-41.5 72t-47.5 56t-47.5 42t-47.5 30.5t-40 21t-32 14q-8 3 -16 7q-8 3 -13 11.5t-5 17.5q0 17 14 26l12 8q35 23 50 41t14 47
q-15 30 -64.5 41.5t-89.5 11.5q-12 -2 -22 8t-11 23v1q0 12 9 21.5t22 10.5q13 0 26.5 -0.5t46 -5.5t57.5 -14t50.5 -29t36.5 -48q2 -5 2 -9q6 -76 -56 -127q218 -104 289 -352q19 -84 2.5 -160t-65.5 -135q-118 -144 -372 -144z" />
    <glyph glyph-name="zhuanyiwenti" unicode="&#xe616;" 
d="M434 -93q20 -17 33.5 -11t13.5 32v134q0 26 18 44t44 18h387v0q26 0 44 18t18 44v70q0 26 -18 44t-44 18h-840q-51 0 -60.5 -24t29.5 -58l375 -329v0zM592 876q-19 17 -33 11t-14 -32v-135v0q0 -26 -18 -44t-44 -18v0h-387v0q-25 0 -43.5 -18.5t-18.5 -43.5v-70
q0 -26 18.5 -44t43.5 -18h841q51 0 60 24t-30 58l-375 330v0z" />
    <glyph glyph-name="xinzeng2" unicode="&#xe62a;" 
d="M838 372q-17 0 -28.5 12t-11.5 29v398h-673v-823h552q16 0 28 -12t12 -29t-12 -29t-28 -12h-592q-17 0 -28.5 12t-11.5 29v905q0 17 11.5 29t28.5 12h753q17 0 28.5 -12t11.5 -29q0 -6 -2 -14q2 -7 2 -13v-412q0 -17 -11.5 -29t-28.5 -12zM677 400h-431q-16 0 -28 12
t-12 29t12 29t28 12h431q16 0 28 -12t12 -29t-12 -29t-28 -12zM677 592h-431q-16 0 -28 12t-12 29t12 29t28 12h431q16 0 28 -12t12 -29t-12 -29t-28 -12zM677 208h-431q-16 0 -28 12t-12 29t12 29t28 12h431q16 0 28 -12t12 -29t-12 -29t-28 -12zM972 43h-94v-123
q0 -17 -11.5 -29t-28.5 -12t-28.5 12t-11.5 29v123h-94q-17 0 -29 12t-12 29t12 29.5t29 12.5h94v123q0 17 11.5 29t28.5 12t28.5 -12t11.5 -29v-123h94q17 0 29 -12.5t12 -29.5t-12 -29t-29 -12z" />
    <glyph glyph-name="baobiao" unicode="&#xe691;" 
d="M51 881h-1q-14 0 -24.5 -10t-10.5 -25v-924q0 -14 10.5 -24.5t25.5 -10.5v0q15 0 25 10t11 25v924q-1 14 -11 24.5t-25 10.5v0v0zM685 209h-520v0q-9 0 -15.5 -6t-6.5 -15v-139q0 -9 6.5 -15t15.5 -6h520v0q9 0 15.5 6t6.5 15v139q0 9 -6.5 15t-15.5 6v0zM988 477h-823v0
q-9 0 -15.5 -6t-6.5 -15v-139q0 -9 6.5 -15t15.5 -6h823v0q9 0 15 6t6 15v139q0 9 -6 15t-15 6v0zM165 564h683q9 0 15.5 6t6.5 15v139q0 9 -6.5 15t-15.5 6v0h-683v0q-9 0 -15.5 -6t-6.5 -15v-139q0 -9 6.5 -15t15.5 -6z" />
    <glyph glyph-name="xiaoshou" unicode="&#xe692;" 
d="M903 881h-246q-74 0 -100.5 -10.5t-79.5 -64.5l-421 -420q-19 -19 -28 -31.5t-14 -31t5.5 -40t36.5 -47.5l308 -308q26 -26 47.5 -36.5t40 -5.5t31 14t31.5 28l420 421q33 32 46 50t21 48.5t8 81.5v290q0 17 -5.5 29t-14.5 18t-24 9.5t-28 4.5t-34 1zM763 530
q-44 0 -74.5 31t-30.5 74.5t31 74.5t74 31v0q44 0 75 -31t31 -75t-31 -74.5t-75 -30.5v0z" />
    <glyph glyph-name="gongcheng" unicode="&#xe694;" 
d="M62 488l374 -235q32 -20 76 -20t76 20l374 235q40 26 40 66.5t-40 65.5l-374 235q-31 20 -76 20t-76 -20l-374 -235q-40 -25 -40 -65.5t40 -66.5v0zM438 87q31 -21 74 -21t74 21l404 271q15 10 15 28q0 10 -6 18q-10 15 -28 15q-10 0 -18 -6l-404 -271q-15 -9 -37 -9
t-37 9l-404 271q-8 6 -18 6q-18 0 -28 -15q-6 -8 -6 -18q0 -18 15 -28l404 -271v0zM953 234l-404 -271q-15 -10 -37 -10t-37 10l-404 271q-8 6 -18 6q-18 0 -28 -15q-6 -8 -6 -18q0 -18 15 -28l404 -271q31 -21 74 -21t74 21l404 271q13 10 13 26q0 14 -9.5 24t-23.5 10
q-9 0 -17 -5v0z" />
    <glyph glyph-name="dangan" unicode="&#xe695;" 
d="M933 547h-842q-15 0 -26.5 -11.5t-11.5 -27.5v-582q0 -16 11 -28q11 -11 27 -11v0h842v0q16 0 27 11q11 12 11 28v0v582v1q0 15 -11 27q-11 11 -27 11v0zM615 365q-10 -12 -26 -12v0h-153q-16 0 -27.5 11.5t-11.5 27.5v0q0 16 12 27q11 12 26 12h1h152q16 0 27.5 -12
t11.5 -27.5t-12 -26.5zM998 870q-11 11 -27 11v0h-918v0q-16 0 -27 -11q-11 -12 -11 -27v-1v-155q0 -16 11 -27q11 -12 27 -12v0h918v0q16 0 27 12q11 11 11 27v0v155v1q0 15 -11 27z" />
    <glyph glyph-name="sheji" unicode="&#xe696;" 
d="M984 -59h-781l120 40q9 3 13 11l467 606q20 26 17 59t-26 54l-164 150q-20 19 -48 19q-3 0 -6 -1q-32 -3 -51 -30l-467 -606q-6 -7 -6 -16l-35 -303q-2 -5 -2 -10q0 -11 7 -19t17 -8h945q11 0 18 8t7 19t-7 19t-18 8v0z" />
    <glyph glyph-name="xitong" unicode="&#xe6a4;" 
d="M971 460h-46q-17 1 -30.5 11t-19.5 26l-26 64q-5 11 -5 24q0 21 14 37l33 32q11 12 11 27.5t-11 26.5l-55 54q-11 12 -26.5 12t-26.5 -12l-33 -32q-16 -14 -37 -14q-13 0 -24 5l-64 26q-16 6 -26 19.5t-10 30.5v46q-1 16 -12 27t-27 11h-76q-16 0 -27 -11t-11 -27v-46
q-1 -17 -11 -30.5t-26 -19.5l-64 -26q-11 -5 -24 -5q-21 0 -37 14l-32 33q-12 11 -27.5 11t-26.5 -11l-54 -55q-12 -11 -12 -26.5t12 -27.5l32 -32q14 -16 14 -37q0 -13 -5 -24l-26 -64q-6 -16 -19.5 -26t-30.5 -11h-46q-16 0 -27 -11t-11 -27v-76q0 -16 11 -27t27 -11h46
q17 -1 30.5 -11.5t19.5 -25.5l26 -64q8 -14 5 -32t-14 -29l-32 -32q-12 -12 -12 -27.5t12 -26.5l54 -55q11 -11 27 -11t27 11l32 33q11 11 29 13.5t32 -4.5l64 -27q16 -5 26 -18.5t11 -30.5v-46q0 -16 11 -27t27 -11h76q16 0 27.5 11t11.5 27v46q0 16 10.5 30.5t25.5 18.5
l64 27q14 7 32 4.5t29 -13.5l32 -33q12 -11 27.5 -11t26.5 11l55 55q11 11 11 26.5t-11 27.5l-33 32q-14 16 -14 37q0 13 5 24l26 64q6 16 19.5 26t31.5 10h45q16 1 27 12t11 27v76v0q0 16 -11 27t-27 11zM512 193q-79 0 -135 56t-56 135t56 135t135 56t135 -56t56 -135v0
q0 -79 -56 -135t-135 -56v0z" />
    <glyph glyph-name="kucun" unicode="&#xe6a5;" 
d="M947 881h-340v0q-25 0 -43.5 -18t-18.5 -44v0v-340q0 -25 18.5 -43.5t43.5 -18.5h340v0q26 0 44 18.5t18 43.5v340q0 26 -18 44t-44 18v0zM947 351h-340v0q-25 0 -43.5 -18.5t-18.5 -43.5v0v-340q0 -26 18.5 -44t43.5 -18v0h340v0q26 0 44 18t18 44v0v340q0 25 -18 43.5
t-44 18.5v0zM417 351h-340q-26 0 -44 -18.5t-18 -43.5v0v-340q0 -26 18 -44t44 -18v0h340q25 0 43.5 18t18.5 44v0v340q0 25 -18.5 43.5t-43.5 18.5v0z" />
    <glyph glyph-name="gongsi" unicode="&#xe698;" 
d="M865 -40v848v19t-3 18t-8.5 18t-17.5 11t-29 5h-582q-31 0 -51.5 -24t-14.5 -47v-848h-142v-68l990 -3v71h-142zM285 814h156v-164h-156v164zM442 545v-164h-156v163zM444 -15h-160l1 289l160 1l-1 -290v0zM743 41l-157 -1l1 235h156v-234zM743 381h-157l1 163l156 1
v-164zM743 650h-157l1 164h156v-164z" />
    <glyph glyph-name="baocun" unicode="&#xe697;" 
d="M768 879h-732q-8 0 -13.5 -5.5t-5.5 -13.5v-952q0 -8 5.5 -13.5t13.5 -5.5h952v0q8 0 13.5 5.5t5.5 13.5v0v736zM141 730q0 8 5.5 13.5t13.5 5.5h488q8 0 13.5 -5.5t5.5 -13.5v-115q0 -8 -5.5 -14t-13.5 -6h-488q-8 0 -13.5 6t-5.5 14v115v0zM884 31q0 -8 -6 -13.5
t-14 -5.5h-704q-8 0 -13.5 5.5t-5.5 13.5v0v345q0 8 5.5 13.5t13.5 5.5h704q8 0 13.5 -5.5t5.5 -13.5v-345h1zM804 354h-92q-7 0 -11.5 -4.5t-4.5 -10.5v-92q0 -7 4.5 -11.5t11.5 -4.5h92v0q7 0 11.5 4.5t4.5 11.5v92q0 6 -4.5 10.5t-11.5 4.5v0z" />
    <glyph glyph-name="guanli" unicode="&#xe69a;" 
d="M365 643q0 70 -49.5 119.5t-119.5 49.5t-119 -49.5t-49 -119.5q0 -68 47 -117q-12 -51 -12 -104q0 -118 57 -219t154 -161l34 139q-53 44 -83 107t-30 134q0 26 4 52q69 1 117.5 50.5t48.5 118.5zM510 737q86 0 160 -43q-12 -30 -12 -61q0 -70 49.5 -119.5t119.5 -49.5
t119.5 49.5t49.5 119.5t-49.5 119t-119.5 49q-32 0 -62 -12q-115 80 -255 80q-95 0 -181 -38l77 -112q50 18 104 18zM825 408q-4 -85 -49.5 -155.5t-118.5 -109.5q-21 42 -61.5 67t-89.5 25q-69 0 -118.5 -49.5t-49.5 -119t49.5 -119t118.5 -49.5q52 0 94.5 28.5t61.5 74.5
q131 48 213.5 163t82.5 258q0 15 -2 30z" />
    <glyph glyph-name="gougou" unicode="&#xe69b;" 
d="M992 654l-78 78q-11 10 -26 10t-26 -10l-468 -464l-223 223q-11 10 -26.5 10t-25.5 -10l-78 -78q-11 -10 -11 -25.5t11 -25.5l248 -248v0v0l54 -54l13 -12l11 -12q11 -10 26 -10t26 10l573 567q11 11 11 26t-11 25z" />
    <glyph glyph-name="quxiao" unicode="&#xe69c;" 
d="M987 243q-21 57 -61 105.5t-85 80.5t-96.5 58t-96.5 40t-84 23.5t-59 12.5t-22 3l-3 242q-81 -62 -196.5 -163t-191 -170.5l-75.5 -69.5q434 -353 467 -353l-2 237q59 13 112 16.5t91 -1t70.5 -13.5t53 -19.5t35.5 -20.5t21 -16.5l6 -6.5q29 -41 49.5 -83.5t28.5 -74
t12 -57.5t4 -40l-1 -13q23 42 33.5 87t9.5 78.5t-5 61t-9 41.5z" />
    <glyph glyph-name="lingdao" unicode="&#xe69d;" 
d="M1007 -59q-1 155 -88.5 280t-227.5 179q43 39 67.5 93t24.5 114v0q0 112 -80 192t-192 80q-113 0 -192.5 -80t-79.5 -192q0 -61 25 -115t70 -92q-142 -56 -229.5 -181t-87.5 -280q0 -21 14.5 -35.5t35 -14.5t35 14.5t14.5 35.5v3q1 86 36 162t97 131q7 -18 25 -26
l213 -130q10 -5 21 -6l-8 1q7 -2 14 -1h1h3v0h2h1q10 2 18 7v0q1 1 6 4q2 1 5 3l6 4t5 3l23 14l92 56q22 13 29 17q1 1 10.5 6.5t13.5 8.5l27 16q16 10 21 28q62 -60 96.5 -137.5t34.5 -162.5v-1q0 -20 14.5 -34t34.5 -14q21 0 35.5 14.5t14.5 34.5v1v0zM510.5 780
q71.5 0 122.5 -51t51 -122.5t-51 -122t-122.5 -50.5t-122 50.5t-50.5 122t50.5 122.5t122 51zM512 180l-182 110q84 45 182 45v0q96 0 182 -45z" />
    <glyph glyph-name="rili" unicode="&#xe69e;" 
d="M915 -69h-806q-42 0 -71.5 29.5t-29.5 70.5v554h1008v-554q0 -41 -29.5 -70.5t-71.5 -29.5zM663 434q0 21 -14.5 36t-35.5 15h-202q-21 0 -35.5 -15t-14.5 -35.5t14.5 -35.5t35.5 -15h139l-139 -277q0 -10 7.5 -17.5t17.5 -7.5h51q10 0 17.5 7.5t7.5 17.5l151 302v25z
M8 686q0 42 29.5 71.5t71.5 29.5h106q8 22 27 36t43.5 14t43.5 -14t27 -36h312q8 22 27 36t43.5 14t43.5 -14t27 -36h106q42 0 71.5 -29.5t29.5 -71.5v-50h-1008v50v0zM713 686h51v101h-51v-101zM260 686h51v101h-51v-101z" />
    <glyph glyph-name="tongzhi" unicode="&#xe69f;" 
d="M512 -111v0q41 0 70.5 29t29.5 70h-200q0 -41 29.5 -70t70.5 -29zM836 186v272q0 113 -70.5 200.5t-178.5 112.5v34q0 30 -22 52t-53 22t-53 -22t-22 -52v-34q-108 -25 -178.5 -112.5t-70.5 -200.5v-272l-100 -99v-49h848v49z" />
    <glyph glyph-name="wenjian" unicode="&#xe6a0;" 
d="M410 794h-308q-42 0 -72 -30.5t-30 -72.5v-614q0 -42 30 -72.5t72 -30.5h820q42 0 72 30.5t30 72.5v512q0 42 -30 72t-72 30h-410z" />
    <glyph glyph-name="wenjianjia" unicode="&#xe6a1;" 
d="M909 2q0 -26 -18.5 -44.5t-44.5 -18.5h-795l111 524q0 27 18.5 45.5t44.5 18.5h732q26 0 44.5 -18.5t18.5 -45.5l-111 -461v0zM178 575h715v62q0 26 -18.5 45t-44.5 19h-382v57q0 27 -18.5 45.5t-45.5 18.5h-318q-26 0 -44.5 -18.5t-18.5 -45.5v-756l111 509
q0 26 18.5 45t45.5 19zM178 575z" />
    <glyph glyph-name="xinxi" unicode="&#xe6a2;" 
d="M380 418l250 1l15 -5l322 302q-3 1 -8 -1t-7 -2h-891q-2 0 -7.5 2t-7.5 1l321 -304zM25 706q-8 -10 -8 -23v-568q0 -9 8 -21l323 306l-323 306v0zM992 708l-324 -308l324 -308q1 2 5.5 7t7 8.5t2.5 7.5v570q0 4 -2.5 7.5t-7 8.5t-5.5 7zM631 382l-249 -1l-15 5l-321 -303
q1 -1 7 0t8 1h891q1 0 7.5 -1t7.5 0l-322 305z" />
    <glyph glyph-name="yixuanze" unicode="&#xe6a3;" 
d="M827 867h-630q-70 0 -119 -48t-49 -116v-639q0 -67 49 -115t119 -48h630q70 0 119 48t49 115v639q0 68 -49 116t-119 48zM923 64q0 -38 -28 -65t-68 -27h-630q-40 0 -68 27t-28 65v640q0 38 28 65t68 27h630q40 0 68.5 -27t28.5 -65v-640h-1zM450 299l-178 137l-84 -103
l178 -136v0l97 -76l373 450l-97 76z" />
    <glyph glyph-name="fenpeijiaose" unicode="&#xe6a8;" 
d="M986 -54q2 -8 2 -14q0 -20 -14 -34t-33.5 -14t-33.5 14t-14 34v0h-2q-6 98 -57.5 180t-137 129.5t-184.5 47.5t-184.5 -47.5t-137 -129.5t-58.5 -180h-1v0q0 -20 -14 -34t-33.5 -14t-33.5 14t-14 34q0 6 2 13q10 134 88.5 242t199.5 159q-57 42 -90 105t-33 135
q0 123 87 210.5t210 87.5t210 -87.5t87 -210.5q0 -70 -30.5 -131t-83.5 -103q126 -49 209 -158.5t94 -247.5zM702 586.5q0 83.5 -59 142.5t-143 59t-143 -59t-59 -142.5t59 -143t143 -59.5t143 59.5t59 143z" />
    <glyph glyph-name="weixuanze" unicode="&#xe6aa;" 
d="M827 867h-630q-70 0 -119 -48t-49 -116v-639q0 -67 49 -115t119 -48h630q70 0 119 48t49 115v639q0 68 -49 116t-119 48zM923 64q0 -38 -28 -65t-68 -27h-630q-40 0 -68 27t-28 65v640q0 38 28 65t68 27h630q40 0 68.5 -27t28.5 -65v-640h-1z" />
    <glyph glyph-name="piliangshanchu-copy" unicode="&#xe7ba;" 
d="M631 384l359 358q25 26 25 60t-25.5 59.5t-59.5 25.5t-60 -25l-358 -359l-358 367q-26 20 -64.5 20t-63.5 -20q-20 -25 -20 -63.5t20 -64.5l367 -358l-359 -358q-25 -26 -25 -60t25.5 -59.5t59.5 -25.5t60 25l358 359l358 -359q26 -25 60 -25t59.5 25.5t25.5 59.5t-25 60
z" />
    <glyph glyph-name="you" unicode="&#xe6a9;" horiz-adv-x="1027" 
d="M960 -32h-892q-28 0 -47.5 20t-19.5 47v721q0 28 19.5 47.5t47.5 19.5h892q28 0 47.5 -19.5t19.5 -47.5v-721q0 -27 -19.5 -47t-47.5 -20zM959 756l-891 -1l1 -720l890 2v719zM691 293q0 -17 -10 -28.5t-24 -11.5h-476q-14 0 -24 11.5t-10 28.5v84q0 16 10 28t24 12h476
q14 0 24 -12t10 -28v-84zM512 544q0 29 15 35.5t35 -12.5l98 -89q51 -47 103 -91l105 -89q21 -19 16 -32t-33 -13h-268q-29 0 -49 20t-21 48v44q-1 65 -1 136v43z" />
    <glyph glyph-name="zuo" unicode="&#xe6ab;" horiz-adv-x="1027" 
d="M1 35v721q0 28 19.5 47.5t47.5 19.5h892q28 0 47.5 -19.5t19.5 -47.5v-721q0 -27 -19.5 -47t-47.5 -20h-892q-28 0 -47.5 20t-19.5 47zM69 37l890 -2l1 720l-891 1v-719zM337 293q0 -17 10 -28.5t24 -11.5h476q14 0 24 11.5t10 28.5v84q0 16 -10 28t-24 12h-476
q-14 0 -24 -12t-10 -28v-84zM516 544q0 29 -14.5 35.5t-35.5 -12.5l-98 -89q-51 -46 -103 -91l-104 -89q-22 -19 -17 -32t33 -13h269q28 0 48 20t21 48v44q1 65 1 136v43z" />
    <glyph glyph-name="cheng-copy" unicode="&#xe8ec;" 
d="M91 125l269 269l-274 273q-34 35 -34.5 82.5t33 81t81 33t81.5 -34.5l274 -274l269 269q33 33 80.5 32.5t82 -34.5t34.5 -81.5t-33 -81.5l-269 -268l274 -274q34 -34 34.5 -82t-33 -81t-81 -33t-81.5 34l-274 274l-269 -268q-33 -34 -81 -33.5t-82 34.5t-34.5 81.5
t33.5 81.5v0z" />
    <glyph glyph-name="xinzeng1" unicode="&#xe6ac;" 
d="M512 -128q-104 0 -199 40q-92 39 -162.5 110t-109.5 162q-40 95 -40 199t40 200q39 91 109.5 162t162.5 110q95 40 199 40t199 -40q92 -39 162.5 -110t109.5 -162q40 -96 40 -200t-40 -199q-39 -91 -109.5 -162t-162.5 -110q-95 -40 -199 -40zM512 765q-104 0 -191.5 -51
t-139 -139t-51.5 -191.5t51.5 -191.5t139 -139t191.5 -51t191.5 51t139 139t51.5 191.5t-51.5 191.5t-139 139t-191.5 51zM784 448h-207v208q0 27 -19 46t-46 19t-46 -19t-19 -46v-208h-207q-27 0 -46 -19t-19 -45.5t19 -45.5t46 -19h207v-208q0 -27 19 -46t46 -19t46 19
t19 46v208h207q27 0 46 19t19 45.5t-19 45.5t-46 19z" />
    <glyph glyph-name="shanchu" unicode="&#xe6ae;" 
d="M150.5 21.5q-73.5 73.5 -112.5 169.5q-37 92 -37 192.5t37 192.5q39 96 112.5 169.5t169.5 111.5q92 38 192 38t192 -38q96 -38 169.5 -111.5t112.5 -169.5q37 -92 37 -192.5t-37 -192.5q-39 -96 -112.5 -169.5t-169.5 -112.5q-92 -37 -192 -37t-192 37
q-96 39 -169.5 112.5zM782 653q-73 74 -171.5 100t-197 0t-171.5 -99.5t-99 -172t0 -196.5t99 -171.5t171.5 -99.5t197 0t171.5 99q55 55 83.5 126.5t28.5 144t-28.5 144t-83.5 125.5zM750 237l-146 146l146 147q19 19 19 46t-19 46t-45.5 19t-45.5 -19l-147 -147l-147 147
q-19 19 -45.5 19t-45.5 -19t-19 -46t19 -46l146 -147l-146 -146q-19 -19 -19 -46t19 -46t45.5 -19t45.5 19l147 147l147 -147q19 -19 45.5 -19t45.5 19t19 46t-19 46z" />
  </font>
</defs>
</svg>
